<svg width="19" height="18" viewBox="0 0 19 18" fill="none" xmlns="http://www.w3.org/2000/svg">
<path d="M16.6246 11.8125H16.0621V5.0625C16.0621 4.61495 15.8843 4.18572 15.5678 3.86926C15.2513 3.55279 14.8221 3.375 14.3746 3.375H4.24957C3.80202 3.375 3.3728 3.55279 3.05633 3.86926C2.73986 4.18572 2.56207 4.61495 2.56207 5.0625V11.8125H1.99957C1.85039 11.8125 1.70731 11.8718 1.60183 11.9773C1.49634 12.0827 1.43707 12.2258 1.43707 12.375V13.5C1.43707 13.9476 1.61486 14.3768 1.93133 14.6932C2.2478 15.0097 2.67702 15.1875 3.12457 15.1875H15.4996C15.9471 15.1875 16.3763 15.0097 16.6928 14.6932C17.0093 14.3768 17.1871 13.9476 17.1871 13.5V12.375C17.1871 12.2258 17.1278 12.0827 17.0223 11.9773C16.9168 11.8718 16.7738 11.8125 16.6246 11.8125ZM3.68707 5.0625C3.68707 4.91332 3.74634 4.77024 3.85183 4.66475C3.95731 4.55926 4.10039 4.5 4.24957 4.5H14.3746C14.5238 4.5 14.6668 4.55926 14.7723 4.66475C14.8778 4.77024 14.9371 4.91332 14.9371 5.0625V11.8125H3.68707V5.0625ZM16.0621 13.5C16.0621 13.6492 16.0028 13.7923 15.8973 13.8977C15.7918 14.0032 15.6488 14.0625 15.4996 14.0625H3.12457C2.97539 14.0625 2.83231 14.0032 2.72683 13.8977C2.62134 13.7923 2.56207 13.6492 2.56207 13.5V12.9375H16.0621V13.5ZM10.9996 6.1875C10.9996 6.33668 10.9403 6.47976 10.8348 6.58525C10.7293 6.69074 10.5863 6.75 10.4371 6.75H8.18707C8.03789 6.75 7.89481 6.69074 7.78933 6.58525C7.68384 6.47976 7.62457 6.33668 7.62457 6.1875C7.62457 6.03832 7.68384 5.89524 7.78933 5.78975C7.89481 5.68426 8.03789 5.625 8.18707 5.625H10.4371C10.5863 5.625 10.7293 5.68426 10.8348 5.78975C10.9403 5.89524 10.9996 6.03832 10.9996 6.1875Z" fill="#0134B9"/>
</svg>
