<svg width="32" height="32" viewBox="0 0 32 32" fill="none" xmlns="http://www.w3.org/2000/svg">
<path d="M16 18.6669C14.5272 18.6669 13.3333 17.473 13.3333 16.0002C13.3333 14.5274 14.5272 13.3335 16 13.3335" stroke="#114DE9" stroke-width="1.5" stroke-linecap="round" stroke-linejoin="round"/>
<path fill-rule="evenodd" clip-rule="evenodd" d="M24.2761 13.3335H28.6656C28.9079 13.3335 29.1312 13.465 29.2487 13.677C29.3662 13.889 29.3594 14.148 29.2309 14.3535L28.2018 16.0002L29.2309 17.6469C29.3594 17.8524 29.3662 18.1114 29.2487 18.3234C29.1312 18.5353 28.9079 18.6669 28.6656 18.6669H24.2761C24.0993 18.6669 23.9298 18.5966 23.8047 18.4716L21.3333 16.0002L23.8047 13.5288C23.9298 13.4038 24.0993 13.3335 24.2761 13.3335Z" stroke="#114DE9" stroke-width="1.5" stroke-linecap="round" stroke-linejoin="round"/>
<path d="M18.6667 16H21.3333" stroke="#114DE9" stroke-width="1.5" stroke-linecap="round" stroke-linejoin="round"/>
<path d="M21.0228 10.6665C18.1174 7.92459 13.5518 8.01269 10.7543 10.8646C7.95689 13.7166 7.95689 18.283 10.7543 21.135C13.5518 23.987 18.1174 24.0751 21.0228 21.3331" stroke="#114DE9" stroke-width="1.5" stroke-linecap="round" stroke-linejoin="round"/>
<path d="M25.9765 9.33329C23.04 4.93832 17.5736 2.98232 12.5154 4.51664C7.45727 6.05097 3.99872 10.7143 3.99872 16C3.99872 21.2857 7.45727 25.949 12.5154 27.4833C17.5736 29.0176 23.04 27.0616 25.9765 22.6667" stroke="#114DE9" stroke-width="1.5" stroke-linecap="round" stroke-linejoin="round"/>
</svg>
