<svg width="33" height="32" viewBox="0 0 33 32" fill="none" xmlns="http://www.w3.org/2000/svg">
<path d="M21.8333 28V25.3333C21.8333 23.9188 21.2714 22.5623 20.2712 21.5621C19.271 20.5619 17.9145 20 16.5 20H8.50001C7.08552 20 5.72896 20.5619 4.72877 21.5621C3.72858 22.5623 3.16667 23.9188 3.16667 25.3333V28" stroke="white" stroke-width="2.66667" stroke-linecap="round" stroke-linejoin="round"/>
<path d="M12.5 14.6667C15.4455 14.6667 17.8333 12.2789 17.8333 9.33333C17.8333 6.38781 15.4455 4 12.5 4C9.55449 4 7.16667 6.38781 7.16667 9.33333C7.16667 12.2789 9.55449 14.6667 12.5 14.6667Z" stroke="white" stroke-width="2.66667" stroke-linecap="round" stroke-linejoin="round"/>
<path d="M21.8333 14.6667L24.5 17.3333L29.8333 12" stroke="white" stroke-width="2.66667" stroke-linecap="round" stroke-linejoin="round"/>
</svg>
