<svg width="32" height="32" viewBox="0 0 32 32" fill="none" xmlns="http://www.w3.org/2000/svg">
<path d="M17.2533 14.7466L7.82666 24.1732" stroke="#114DE9" stroke-width="1.5" stroke-linecap="round" stroke-linejoin="round"/>
<path d="M8.844 17.3318L4.22666 16.2411C3.71866 16.1211 3.54 15.4905 3.908 15.1211L7.58 11.4491C7.82666 11.2025 8.16133 11.0611 8.512 11.0585L12.652 11.0225" stroke="#114DE9" stroke-width="1.5" stroke-linecap="round" stroke-linejoin="round"/>
<path fill-rule="evenodd" clip-rule="evenodd" d="M26.5053 11.9665L27.5827 6.78249C27.876 5.37183 26.628 4.12383 25.2173 4.41716L20.0333 5.49449C18.5067 5.81183 17.1067 6.56783 16.0053 7.67049L11.752 11.9225C10.1293 13.5451 9.07335 15.6491 8.74002 17.9198L8.72535 18.0171C8.51468 19.4665 9.00002 20.9291 10.0347 21.9651C11.0693 22.9998 12.5333 23.4851 13.9827 23.2731L14.08 23.2585C16.3507 22.9265 18.4547 21.8691 20.0773 20.2465L24.3293 15.9945C25.432 14.8931 26.188 13.4931 26.5053 11.9665Z" stroke="#114DE9" stroke-width="1.5" stroke-linecap="round" stroke-linejoin="round"/>
<path d="M17.8667 6.28516C20.948 8.38649 23.6133 11.0518 25.7147 14.1331" stroke="#114DE9" stroke-width="1.5" stroke-linecap="round" stroke-linejoin="round"/>
<path d="M14.6667 23.1561L15.7573 27.7734C15.8773 28.2814 16.508 28.4601 16.8773 28.0921L20.5493 24.4201C20.796 24.1734 20.9373 23.8388 20.94 23.4881L20.976 19.3481" stroke="#114DE9" stroke-width="1.5" stroke-linecap="round" stroke-linejoin="round"/>
</svg>
