<svg width="32" height="32" viewBox="0 0 32 32" fill="none" xmlns="http://www.w3.org/2000/svg">
<path fill-rule="evenodd" clip-rule="evenodd" d="M14.3371 8.88886C14.1173 9.21776 14 9.60444 14 10C14 10.5304 14.2107 11.0391 14.5858 11.4142C14.9609 11.7893 15.4696 12 16 12C16.3956 12 16.7822 11.8827 17.1111 11.6629C17.44 11.4432 17.6964 11.1308 17.8478 10.7654C17.9991 10.3999 18.0387 9.99778 17.9616 9.60982C17.8844 9.22186 17.6939 8.86549 17.4142 8.58579C17.1345 8.30608 16.7781 8.1156 16.3902 8.03843C16.0022 7.96126 15.6001 8.00087 15.2346 8.15224C14.8692 8.30362 14.5568 8.55996 14.3371 8.88886ZM10.3431 4.34315C8.84285 5.84344 8 7.87827 8 10C8 17.5 15.1975 21.6925 15.5075 21.8687C15.6586 21.9551 15.8297 22.0006 16.0037 22.0006C16.1778 22.0006 16.3489 21.9551 16.5 21.8687C16.8025 21.6925 24 17.4937 24 10C24 7.87827 23.1571 5.84344 21.6569 4.34315C20.1566 2.84285 18.1217 2 16 2C13.8783 2 11.8434 2.84285 10.3431 4.34315ZM16 19.8125C14.48 18.7763 10 15.275 10 10C10 8.4087 10.6321 6.88258 11.7574 5.75736C12.8826 4.63214 14.4087 4 16 4C17.5913 4 19.1174 4.63214 20.2426 5.75736C21.3679 6.88258 22 8.4087 22 10C22 15.275 17.5188 18.7775 16 19.8125Z" fill="#082DA7"/>
<path d="M25.3463 18.4538C25.1001 18.3724 24.832 18.3899 24.5985 18.5024C24.365 18.6149 24.1843 18.8137 24.0945 19.0568C24.0047 19.3 24.0128 19.5685 24.1171 19.8058C24.2215 20.0431 24.4139 20.2306 24.6537 20.3288C26.7175 21.0925 28 22.115 28 23C28 24.67 23.435 27 16 27C8.565 27 4 24.67 4 23C4 22.115 5.2825 21.0925 7.34625 20.33C7.58614 20.2318 7.77853 20.0443 7.88286 19.807C7.98719 19.5697 7.99531 19.3012 7.90551 19.0581C7.8157 18.8149 7.63499 18.6161 7.40147 18.5036C7.16795 18.3911 6.89987 18.3737 6.65375 18.455C3.6525 19.5613 2 21.1763 2 23C2 26.8975 9.21375 29 16 29C22.7863 29 30 26.8975 30 23C30 21.1763 28.3475 19.5613 25.3463 18.4538Z" fill="#EB0F39"/>
</svg>
