<svg width="25" height="24" viewBox="0 0 25 24" fill="none" xmlns="http://www.w3.org/2000/svg">
<g clip-path="url(#clip0_40004054_979)">
<path d="M21.5144 9.52367C22.3044 10.3138 22.3044 11.5946 21.5144 12.3847C20.7244 13.1747 19.4435 13.1747 18.6534 12.3847C17.8634 11.5946 17.8634 10.3138 18.6534 9.52367C19.4435 8.73364 20.7244 8.73364 21.5144 9.52367Z" stroke="#114DE9" stroke-width="1.5" stroke-linecap="round" stroke-linejoin="round"/>
<path d="M14.9245 5.91236C16.141 7.12884 16.141 9.10115 14.9245 10.3176C13.708 11.5341 11.7357 11.5341 10.5192 10.3176C9.30269 9.10116 9.30269 7.12885 10.5192 5.91236C11.7357 4.69588 13.708 4.69588 14.9245 5.91236Z" stroke="#114DE9" stroke-width="1.5" stroke-linecap="round" stroke-linejoin="round"/>
<path d="M6.79036 9.52367C7.5804 10.3138 7.5804 11.5946 6.79036 12.3847C6.00033 13.1747 4.71944 13.1747 3.92941 12.3847C3.13938 11.5946 3.13938 10.3138 3.92941 9.52367C4.71945 8.73364 6.00033 8.73364 6.79036 9.52367Z" stroke="#114DE9" stroke-width="1.5" stroke-linecap="round" stroke-linejoin="round"/>
<path d="M23.7219 18.9998V17.9038C23.7219 16.5228 22.6029 15.4038 21.2219 15.4038H20.4209" stroke="#114DE9" stroke-width="1.5" stroke-linecap="round" stroke-linejoin="round"/>
<path d="M1.72186 18.9998V17.9038C1.72186 16.5228 2.84086 15.4038 4.22186 15.4038H5.02286" stroke="#114DE9" stroke-width="1.5" stroke-linecap="round" stroke-linejoin="round"/>
<path d="M18.0609 18.9999V17.3989C18.0609 15.4659 16.4939 13.8989 14.5609 13.8989H10.8819C8.94887 13.8989 7.38187 15.4659 7.38187 17.3989V18.9999" stroke="#114DE9" stroke-width="1.5" stroke-linecap="round" stroke-linejoin="round"/>
</g>
<defs>
<clipPath id="clip0_40004054_979">
<rect width="24" height="24" fill="white" transform="translate(0.721863)"/>
</clipPath>
</defs>
</svg>
