<svg width="28" height="28" viewBox="0 0 28 28" fill="none" xmlns="http://www.w3.org/2000/svg">
<path d="M7 21H4.66667C4.04783 21 3.45434 20.7542 3.01675 20.3166C2.57917 19.879 2.33334 19.2855 2.33334 18.6667V12.8333C2.33334 12.2145 2.57917 11.621 3.01675 11.1834C3.45434 10.7458 4.04783 10.5 4.66667 10.5H23.3333C23.9522 10.5 24.5457 10.7458 24.9833 11.1834C25.4208 11.621 25.6667 12.2145 25.6667 12.8333V18.6667C25.6667 19.2855 25.4208 19.879 24.9833 20.3166C24.5457 20.7542 23.9522 21 23.3333 21H21" stroke="white" stroke-width="2.33333" stroke-linecap="round" stroke-linejoin="round"/>
<path d="M7 10.4999V3.49992C7 3.1905 7.12292 2.89375 7.34171 2.67496C7.5605 2.45617 7.85725 2.33325 8.16667 2.33325H19.8333C20.1428 2.33325 20.4395 2.45617 20.6583 2.67496C20.8771 2.89375 21 3.1905 21 3.49992V10.4999" stroke="white" stroke-width="2.33333" stroke-linecap="round" stroke-linejoin="round"/>
<path d="M19.8333 16.3333H8.16667C7.52233 16.3333 7 16.8556 7 17.4999V24.4999C7 25.1443 7.52233 25.6666 8.16667 25.6666H19.8333C20.4777 25.6666 21 25.1443 21 24.4999V17.4999C21 16.8556 20.4777 16.3333 19.8333 16.3333Z" stroke="white" stroke-width="2.33333" stroke-linecap="round" stroke-linejoin="round"/>
</svg>
