<svg width="182" height="33" viewBox="0 0 182 33" fill="none" xmlns="http://www.w3.org/2000/svg">
<path d="M8.63542 24.448C8.35542 24.616 7.94942 24.7 7.41742 24.7C7.22142 24.7 6.98342 24.686 6.70342 24.658C6.42342 24.63 6.18542 24.63 5.98942 24.658C6.21342 25.582 6.74542 26.338 7.58542 26.926C8.42542 27.486 9.36342 27.766 10.3994 27.766C11.2954 27.766 12.0934 27.57 12.7934 27.178C13.8294 26.646 14.7254 26.016 15.4814 25.288C16.0134 24.756 16.5174 24.49 16.9934 24.49C17.3014 24.49 17.5674 24.644 17.7914 24.952C18.0154 25.316 18.1274 25.764 18.1274 26.296C18.1274 26.856 18.0154 27.29 17.7914 27.598C17.0634 28.718 16.1114 29.488 14.9354 29.908C13.7874 30.328 12.4434 30.538 10.9034 30.538C9.30742 30.538 7.76742 30.188 6.28342 29.488C4.79942 28.788 3.52542 27.836 2.46142 26.632C1.42542 25.4 0.739418 24.042 0.403419 22.558C0.179419 21.69 0.0674185 20.836 0.0674185 19.996C0.0674185 18.68 0.431419 17.616 1.15942 16.804C1.91542 15.992 3.11942 15.222 4.77142 14.494C6.28342 13.85 7.68342 13.528 8.97142 13.528C9.89542 13.528 10.7914 13.668 11.6594 13.948C14.3474 14.788 15.6914 15.936 15.6914 17.392C15.6914 18.316 15.1454 19.436 14.0534 20.752C13.5214 21.368 12.8914 21.914 12.1634 22.39C11.4354 22.866 10.7214 23.3 10.0214 23.692C9.34942 24.056 8.88742 24.308 8.63542 24.448ZM10.3994 16.678C10.3714 16.538 10.2594 16.426 10.0634 16.342C9.89542 16.23 9.79742 16.16 9.76942 16.132C9.01342 16.076 8.24342 16.3 7.45942 16.804C6.67542 17.28 6.01742 17.896 5.48542 18.652C4.98142 19.408 4.72942 20.136 4.72942 20.836L4.77142 21.172C4.79942 21.284 4.93942 21.424 5.19142 21.592C5.47142 21.76 5.63942 21.816 5.69542 21.76C7.68342 20.276 9.18142 19.086 10.1894 18.19C10.3574 18.022 10.4414 17.714 10.4414 17.266C10.4414 16.986 10.4274 16.79 10.3994 16.678ZM50.1799 20.038C50.1239 18.974 49.6759 18.19 48.8359 17.686C48.1639 17.854 47.6179 18.064 47.1979 18.316C46.7779 18.568 46.4699 18.82 46.2739 19.072C46.0779 19.296 45.7279 19.744 45.2239 20.416C45.0559 20.64 44.8739 20.948 44.6779 21.34C44.5099 21.732 44.4119 21.97 44.3839 22.054C44.2999 22.25 44.2579 22.46 44.2579 22.684C44.2579 22.852 44.2859 23.118 44.3419 23.482C44.4259 23.818 44.4539 24.084 44.4259 24.28C44.3979 24.7 44.4119 25.358 44.4679 26.254L44.5099 27.556C44.5099 27.948 44.4959 28.242 44.4679 28.438C44.4119 28.886 44.2719 29.278 44.0479 29.614C43.8239 29.95 43.5159 30.118 43.1239 30.118C42.9839 30.118 42.8019 30.076 42.5779 29.992C42.3819 29.936 42.0599 29.838 41.6119 29.698C41.1639 29.558 40.8139 29.348 40.5619 29.068C40.3099 28.76 40.1839 28.326 40.1839 27.766C40.1839 26.31 40.0439 24.126 39.7639 21.214C39.7079 20.906 39.6519 20.388 39.5959 19.66C39.5679 19.352 39.4279 19.114 39.1759 18.946C38.9239 18.778 38.6159 18.694 38.2519 18.694C37.6639 18.694 37.2159 18.848 36.9079 19.156C35.6199 19.884 34.6819 20.71 34.0939 21.634C33.5059 22.558 33.2119 23.748 33.2119 25.204L33.2539 26.632C33.2539 27.556 33.0159 28.41 32.5399 29.194C32.3999 29.446 32.1059 29.67 31.6579 29.866C31.2379 30.034 30.8739 30.09 30.5659 30.034C30.2859 30.006 29.9919 29.824 29.6839 29.488C29.4039 29.124 29.2639 28.802 29.2639 28.522C29.1799 26.17 29.1379 23.832 29.1379 21.508C29.1379 19.408 29.1659 17.84 29.2219 16.804C29.2499 16.272 29.4319 15.852 29.7679 15.544C30.1039 15.236 30.5099 15.082 30.9859 15.082C31.6019 15.082 32.1479 15.306 32.6239 15.754C32.8759 16.23 33.0859 16.58 33.2539 16.804C33.4219 17 33.6039 17.098 33.7999 17.098C33.9679 17.098 34.1639 17.014 34.3879 16.846C34.6119 16.65 34.9199 16.342 35.3119 15.922C36.2359 14.914 37.2019 14.41 38.2099 14.41C39.3019 14.41 40.6179 14.956 42.1579 16.048C42.2699 16.132 42.4239 16.258 42.6199 16.426C42.8159 16.566 42.9839 16.636 43.1239 16.636C43.3199 16.636 43.6279 16.412 44.0479 15.964C45.6159 14.508 47.6039 13.71 50.0119 13.57C50.7679 13.542 51.5239 13.836 52.2799 14.452C53.0639 15.04 53.5539 15.754 53.7499 16.594C54.0859 18.022 54.3239 19.702 54.4639 21.634C54.6319 24.546 54.7019 26.73 54.6739 28.186C54.6459 28.858 54.4639 29.39 54.1279 29.782C53.7919 30.146 53.3579 30.328 52.8259 30.328C52.4059 30.328 51.9579 30.202 51.4819 29.95C51.2859 29.866 51.1039 29.712 50.9359 29.488C50.7679 29.264 50.6839 29.068 50.6839 28.9L50.4319 24.448C50.4039 23.972 50.3759 23.37 50.3479 22.642C50.3199 21.886 50.2639 21.018 50.1799 20.038ZM66.6102 26.884C67.5342 25.316 67.9962 23.37 67.9962 21.046C67.9962 20.346 67.9402 19.282 67.8282 17.854V15.04V13.528C67.8282 12.632 68.1502 12.184 68.7942 12.184C69.0182 12.184 69.2422 12.226 69.4662 12.31C70.8942 12.926 71.7062 13.584 71.9022 14.284C72.6022 16.58 72.9522 18.834 72.9522 21.046C72.9522 23.482 72.5042 25.82 71.6082 28.06C71.1322 29.236 70.3902 30.118 69.3822 30.706C68.4022 31.294 67.3102 31.588 66.1062 31.588C64.6222 31.588 63.3202 31.224 62.2002 30.496C60.2682 29.264 59.1342 27.5 58.7982 25.204C58.6582 24.056 58.5322 23.174 58.4202 22.558C58.1402 20.906 57.9582 19.618 57.8742 18.694C57.8462 18.05 58.0702 17.532 58.5462 17.14C59.0222 16.72 59.5962 16.51 60.2682 16.51C60.5202 16.51 60.7722 16.552 61.0242 16.636C62.0602 17 62.7742 17.518 63.1662 18.19C63.5582 18.862 63.7402 19.772 63.7122 20.92C63.6562 21.816 63.6282 22.488 63.6282 22.936C63.6282 24.532 63.9502 25.848 64.5942 26.884C64.7062 27.108 64.8602 27.318 65.0562 27.514C65.2522 27.71 65.3782 27.794 65.4342 27.766C65.6582 27.738 65.8682 27.64 66.0642 27.472C66.2882 27.304 66.4702 27.108 66.6102 26.884ZM80.4687 11.428C80.4127 11.596 80.2027 11.778 79.8387 11.974C79.5027 12.17 79.2227 12.352 78.9987 12.52L77.8227 11.89C76.6747 11.274 75.8907 10.784 75.4707 10.42C75.2467 10.252 75.1347 10.042 75.1347 9.79C75.1347 9.622 75.1907 9.482 75.3027 9.37C75.4427 9.23 75.6387 9.16 75.8907 9.16C76.9827 9.16 78.3127 9.44 79.8807 10C80.0487 10.028 80.2027 10.224 80.3427 10.588C80.4827 10.924 80.5247 11.204 80.4687 11.428ZM76.6887 19.24C76.7727 18.876 76.8287 18.61 76.8567 18.442C76.8847 18.274 76.8987 18.092 76.8987 17.896C76.8987 17.504 77.0107 17.196 77.2347 16.972C77.4867 16.748 77.9487 16.636 78.6207 16.636C79.4047 16.636 80.0907 16.888 80.6787 17.392C81.2947 17.868 81.6727 18.498 81.8127 19.282C81.8967 19.674 81.9527 20.108 81.9807 20.584C82.0087 21.06 82.0227 21.368 82.0227 21.508L82.6107 28.69C82.6947 29.446 82.5827 30.034 82.2747 30.454C81.9947 30.846 81.4487 31.042 80.6367 31.042C79.9367 31.042 79.3347 30.846 78.8307 30.454C78.3547 30.062 78.0607 29.558 77.9487 28.942L76.8567 20.038L76.6887 19.24ZM94.7344 9.958C94.8744 9.902 95.1824 9.86 95.6584 9.832C96.1624 9.776 96.6104 9.748 97.0024 9.748C97.7864 9.748 98.5004 10.238 99.1444 11.218L98.5984 11.638C97.9544 12.114 97.0304 12.478 95.8264 12.73C94.7624 13.262 93.9644 13.71 93.4324 14.074C92.9284 14.438 92.5504 14.844 92.2984 15.292C92.0744 15.74 91.9624 16.314 91.9624 17.014C91.9624 17.35 92.0464 18.218 92.2144 19.618L92.4244 21.382C92.6484 23.538 92.8444 25.12 93.0124 26.128C93.0684 26.492 93.1804 26.926 93.3484 27.43C93.5444 27.906 93.7404 28.186 93.9364 28.27C94.1324 28.354 94.5244 28.214 95.1124 27.85C96.2324 26.506 96.9604 25.568 97.2964 25.036C97.3804 24.896 97.5204 24.658 97.7164 24.322C97.9124 23.986 98.1084 23.734 98.3044 23.566C98.5004 23.37 98.7384 23.272 99.0184 23.272C99.0744 23.272 99.2144 23.3 99.4384 23.356C99.8864 23.496 100.236 23.706 100.488 23.986C100.768 24.266 100.908 24.672 100.908 25.204C100.908 25.456 100.894 25.638 100.866 25.75C100.698 26.87 100.306 27.878 99.6904 28.774C99.0744 29.67 98.2624 30.552 97.2544 31.42C96.8624 31.784 96.2184 31.966 95.3224 31.966C94.3424 31.966 93.3764 31.742 92.4244 31.294C91.4724 30.874 90.8284 30.314 90.4924 29.614C89.6244 27.738 88.8124 25.344 88.0564 22.432C87.8604 21.62 87.7064 20.332 87.5944 18.568L87.4684 17.014C87.4124 16.37 87.4124 15.88 87.4684 15.544C87.5244 15.18 86.9784 14.956 85.8304 14.872C85.4104 14.844 85.2004 14.564 85.2004 14.032C85.4804 13.136 85.9144 12.604 86.5024 12.436C87.0624 12.268 87.4124 11.918 87.5524 11.386C87.6924 10.826 87.8044 10.252 87.8884 9.664C88.1404 7.844 88.1964 5.814 88.0564 3.574C88.0004 2.51 88.3224 1.894 89.0224 1.726L89.4004 1.768C89.5404 1.796 89.8624 1.852 90.3664 1.936C90.8704 1.992 91.3184 2.118 91.7104 2.314C92.6904 2.846 93.1804 3.784 93.1804 5.128C93.1804 5.688 93.0684 6.416 92.8444 7.312C92.8164 7.452 92.7744 7.578 92.7184 7.69C92.6624 7.802 92.6204 7.928 92.5924 8.068C92.5084 8.488 92.4664 8.838 92.4664 9.118C92.2144 9.958 92.4104 10.378 93.0544 10.378C93.2784 10.378 93.8384 10.238 94.7344 9.958ZM119.255 16.762C119.507 17.266 119.731 17.84 119.927 18.484C120.151 19.1 120.305 19.506 120.389 19.702L120.767 20.794C120.431 22.39 120.095 23.706 119.759 24.742C119.423 25.75 118.933 26.702 118.289 27.598C117.645 28.466 116.763 29.18 115.643 29.74C114.607 30.272 113.501 30.538 112.325 30.538C111.037 30.538 109.791 30.244 108.587 29.656C107.411 29.068 106.417 28.256 105.605 27.22C104.793 26.156 104.317 24.966 104.177 23.65C104.121 22.978 104.093 22.46 104.093 22.096C104.093 21.116 104.233 20.22 104.513 19.408C104.821 18.596 105.353 17.854 106.109 17.182C106.333 16.986 106.585 16.608 106.865 16.048C107.117 15.544 107.355 15.166 107.579 14.914C108.755 13.654 110.155 13.024 111.779 13.024C112.591 13.024 113.543 13.206 114.635 13.57C114.775 13.626 115.237 13.794 116.021 14.074C116.833 14.354 117.505 14.718 118.037 15.166C118.569 15.614 118.975 16.146 119.255 16.762ZM111.947 15.376C110.911 16.216 110.169 17.224 109.721 18.4C109.301 19.548 108.923 21.102 108.587 23.062C108.643 23.286 108.769 23.762 108.965 24.49C109.161 25.218 109.399 25.89 109.679 26.506C109.987 27.262 110.533 27.64 111.317 27.64C111.457 27.64 111.723 27.612 112.115 27.556C112.983 27.388 113.739 26.898 114.383 26.086C115.055 25.246 115.573 24.266 115.937 23.146C116.301 22.026 116.483 20.99 116.483 20.038C116.483 18.162 115.713 16.58 114.173 15.292C113.781 14.984 113.431 14.83 113.123 14.83C112.787 14.83 112.395 15.012 111.947 15.376ZM156.948 14.578C158.096 14.578 158.67 14.928 158.67 15.628C158.67 16.216 158.32 16.916 157.62 17.728C156.92 18.512 156.178 19.1 155.394 19.492L152.916 19.87C151.46 20.094 150.368 20.248 149.64 20.332C148.996 20.416 148.492 20.626 148.128 20.962C147.792 21.27 147.526 21.746 147.33 22.39C146.322 25.75 145.482 28.228 144.81 29.824C144.53 30.524 143.774 31.28 142.542 32.092C142.178 32.316 141.87 32.428 141.618 32.428C141.366 32.428 141.17 32.302 141.03 32.05C140.918 31.826 140.876 31.504 140.904 31.084C141.016 29.936 141.268 28.144 141.66 25.708L141.912 24.028L142.164 22.516C141.184 22.516 140.316 22.782 139.56 23.314C138.832 23.818 138.034 24.07 137.166 24.07C136.69 24.07 136.018 23.944 135.15 23.692C134.03 23.356 133.47 22.684 133.47 21.676C133.47 21.144 133.778 20.612 134.394 20.08C135.346 19.268 136.396 18.624 137.544 18.148C138.692 17.644 140.022 17.196 141.534 16.804C142.206 16.636 142.654 16.496 142.878 16.384C143.102 16.272 143.256 16.104 143.34 15.88C143.424 15.628 143.494 15.166 143.55 14.494C143.606 14.102 143.634 13.528 143.634 12.772L143.592 10.168C143.592 10.028 143.564 9.832 143.508 9.58C143.452 9.3 143.424 9.09 143.424 8.95C143.48 8.362 143.662 7.9 143.97 7.564C144.278 7.2 144.67 7.018 145.146 7.018C145.454 7.018 145.734 7.074 145.986 7.186C147.862 7.83 148.884 9.02 149.052 10.756C149.08 11.064 149.094 11.512 149.094 12.1L149.052 14.83C149.192 14.858 149.416 14.914 149.724 14.998C150.06 15.082 150.34 15.11 150.564 15.082C153.14 14.914 155.072 14.76 156.36 14.62L156.948 14.578ZM181.08 8.74C180.828 10.42 180.632 11.596 180.492 12.268C180.128 13.92 179.456 16.636 178.476 20.416C178.028 21.984 177.622 23.118 177.258 23.818C176.866 24.658 176.306 25.414 175.578 26.086C175.382 26.282 175.102 26.38 174.738 26.38C174.57 26.38 174.402 26.324 174.234 26.212C174.066 26.044 173.912 25.792 173.772 25.456C173.66 25.092 173.604 24.77 173.604 24.49C173.688 23.538 173.87 22.46 174.15 21.256C175.578 15.32 176.404 9.804 176.628 4.708L176.67 4.078C176.726 2.986 176.88 2.202 177.132 1.726C177.412 1.222 177.846 0.969999 178.434 0.969999C178.91 0.969999 179.414 1.306 179.946 1.978C180.506 2.65 180.828 3.336 180.912 4.036L181.332 7.228L181.08 8.74ZM173.31 32.176C172.666 31.896 172.176 31.518 171.84 31.042C171.532 30.594 171.378 30.02 171.378 29.32C171.378 28.76 171.448 28.242 171.588 27.766C171.84 27.822 172.232 27.906 172.764 28.018C173.296 28.13 173.744 28.242 174.108 28.354C174.584 28.494 175.004 28.718 175.368 29.026C175.9 29.474 176.166 29.992 176.166 30.58C176.166 30.944 176.054 31.28 175.83 31.588C175.438 32.148 174.934 32.428 174.318 32.428C173.982 32.428 173.646 32.344 173.31 32.176Z" fill="white"/>
</svg>
