<svg width="32" height="32" viewBox="0 0 32 32" fill="none" xmlns="http://www.w3.org/2000/svg">
<path fill-rule="evenodd" clip-rule="evenodd" d="M15.9987 19.8451L18.6733 21.2505C19.1933 21.5238 19.8027 21.0825 19.7027 20.5025L19.192 17.5251L21.356 15.4185C21.7773 15.0078 21.5453 14.2918 20.9627 14.2078L17.9733 13.7731L16.636 11.0625C16.376 10.5345 15.624 10.5345 15.3627 11.0625L14.0267 13.7731L11.0373 14.2078C10.4547 14.2918 10.2227 15.0078 10.644 15.4185L12.808 17.5251L12.2973 20.5025C12.1973 21.0825 12.8067 21.5238 13.3267 21.2505L16.0013 19.8451H15.9987Z" stroke="#114DE9" stroke-width="1.5" stroke-linecap="round" stroke-linejoin="round"/>
<path d="M28.6666 16H27.2" stroke="#114DE9" stroke-width="1.5" stroke-linecap="round" stroke-linejoin="round"/>
<path d="M4.79998 16H3.33331" stroke="#114DE9" stroke-width="1.5" stroke-linecap="round" stroke-linejoin="round"/>
<path d="M25.1466 6.85352L23.7466 8.25352" stroke="#114DE9" stroke-width="1.5" stroke-linecap="round" stroke-linejoin="round"/>
<path d="M6.88 25.1868L8.29334 23.7734" stroke="#114DE9" stroke-width="1.5" stroke-linecap="round" stroke-linejoin="round"/>
<path d="M6.85333 6.87988L8.25333 8.29322" stroke="#114DE9" stroke-width="1.5" stroke-linecap="round" stroke-linejoin="round"/>
<path d="M25.1866 25.1466L23.7733 23.7466" stroke="#114DE9" stroke-width="1.5" stroke-linecap="round" stroke-linejoin="round"/>
<path d="M16 27.2534V28.6668" stroke="#114DE9" stroke-width="1.5" stroke-linecap="round" stroke-linejoin="round"/>
<path d="M16 3.3335V4.74683" stroke="#114DE9" stroke-width="1.5" stroke-linecap="round" stroke-linejoin="round"/>
</svg>
