<svg width="28" height="28" viewBox="0 0 28 28" fill="none" xmlns="http://www.w3.org/2000/svg">
<path d="M17.15 7.35002C16.9362 7.5681 16.8165 7.86131 16.8165 8.16668C16.8165 8.47206 16.9362 8.76527 17.15 8.98335L19.0167 10.85C19.2348 11.0638 19.528 11.1835 19.8333 11.1835C20.1387 11.1835 20.4319 11.0638 20.65 10.85L25.0483 6.45168C25.635 7.74807 25.8126 9.19246 25.5575 10.5924C25.3025 11.9922 24.6268 13.2812 23.6207 14.2873C22.6145 15.2935 21.3256 15.9692 19.9257 16.2242C18.5258 16.4793 17.0814 16.3017 15.785 15.715L7.72335 23.7767C7.25922 24.2408 6.62972 24.5016 5.97335 24.5016C5.31697 24.5016 4.68748 24.2408 4.22335 23.7767C3.75922 23.3126 3.49847 22.6831 3.49847 22.0267C3.49847 21.3703 3.75922 20.7408 4.22335 20.2767L12.285 12.215C11.6984 10.9186 11.5207 9.47424 11.7758 8.07435C12.0309 6.67445 12.7065 5.38553 13.7127 4.37936C14.7189 3.37319 16.0078 2.69755 17.4077 2.44248C18.8076 2.18742 20.252 2.36504 21.5483 2.95168L17.1617 7.33835L17.15 7.35002Z" stroke="white" stroke-width="2.33333" stroke-linecap="round" stroke-linejoin="round"/>
</svg>
