<svg width="16" height="16" viewBox="0 0 16 16" fill="none" xmlns="http://www.w3.org/2000/svg">
<path d="M14.9487 6.07866C14.8862 5.88649 14.7682 5.71712 14.6096 5.59189C14.451 5.46665 14.2589 5.39116 14.0575 5.37491L10.37 5.07741L8.94623 1.63429C8.86923 1.44667 8.73819 1.28619 8.56975 1.17325C8.40131 1.06031 8.20309 1 8.00029 1C7.79749 1 7.59928 1.06031 7.43084 1.17325C7.2624 1.28619 7.13135 1.44667 7.05436 1.63429L5.63186 5.07679L1.94248 5.37491C1.74072 5.39198 1.54847 5.4682 1.38984 5.59404C1.23121 5.71988 1.11323 5.88973 1.05071 6.08232C0.988178 6.27491 0.983875 6.48167 1.03833 6.67669C1.09279 6.87172 1.2036 7.04633 1.35686 7.17866L4.16936 9.60554L3.31248 13.2343C3.26456 13.4314 3.27629 13.6384 3.34619 13.8288C3.41609 14.0193 3.54101 14.1847 3.70508 14.304C3.86915 14.4234 4.06498 14.4913 4.26772 14.4991C4.47045 14.5069 4.67094 14.4544 4.84373 14.348L7.99998 12.4055L11.1581 14.348C11.331 14.4531 11.531 14.5047 11.7331 14.4962C11.9352 14.4878 12.1303 14.4198 12.2939 14.3007C12.4574 14.1816 12.582 14.0168 12.652 13.8271C12.7221 13.6373 12.7344 13.431 12.6875 13.2343L11.8275 9.60491L14.64 7.17804C14.7945 7.04593 14.9063 6.87094 14.9613 6.67522C15.0162 6.47951 15.0119 6.27189 14.9487 6.07866ZM13.99 6.42054L10.9462 9.04554C10.8768 9.10537 10.8252 9.18312 10.797 9.27031C10.7687 9.3575 10.765 9.45076 10.7862 9.53991L11.7162 13.4649C11.7186 13.4703 11.7189 13.4765 11.7169 13.482C11.7149 13.4876 11.7109 13.4922 11.7056 13.4949C11.6944 13.5037 11.6912 13.5018 11.6819 13.4949L8.26186 11.3918C8.18309 11.3434 8.09244 11.3177 7.99998 11.3177C7.90752 11.3177 7.81687 11.3434 7.73811 11.3918L4.31811 13.4962C4.30873 13.5018 4.30623 13.5037 4.29436 13.4962C4.28908 13.4935 4.28504 13.4889 4.28306 13.4833C4.28109 13.4777 4.28132 13.4716 4.28373 13.4662L5.21373 9.54116C5.23493 9.45201 5.23121 9.35875 5.203 9.27156C5.17478 9.18437 5.12314 9.10662 5.05373 9.04679L2.00998 6.42179C2.00248 6.41554 1.99561 6.40991 2.00186 6.39054C2.00811 6.37116 2.01311 6.37366 2.02248 6.37241L6.01748 6.04991C6.10911 6.04205 6.1968 6.00907 6.2709 5.9546C6.345 5.90013 6.40264 5.82628 6.43748 5.74116L7.97623 2.01554C7.98123 2.00491 7.98311 1.99991 7.99811 1.99991C8.01311 1.99991 8.01498 2.00491 8.01998 2.01554L9.56248 5.74116C9.59765 5.82631 9.65566 5.90008 9.7301 5.95434C9.80455 6.00861 9.89253 6.04125 9.98436 6.04866L13.9794 6.37116C13.9887 6.37116 13.9944 6.37116 14 6.38929C14.0056 6.40741 14 6.41429 13.99 6.42054Z" fill="#0134B9"/>
</svg>
