<svg width="32" height="33" viewBox="0 0 32 33" fill="none" xmlns="http://www.w3.org/2000/svg">
<g clip-path="url(#clip0_40004038_1081)">
<path d="M28.345 8.42683C28.2843 8.2769 28.1882 8.14392 28.0649 8.0393C27.9415 7.93468 27.7947 7.86153 27.6369 7.82613C27.4791 7.79074 27.315 7.79415 27.1588 7.83607C27.0026 7.87799 26.8589 7.95717 26.74 8.06683L21.7025 12.7156L19.5488 12.2531L19.0863 10.0993L23.735 5.06183C23.8447 4.94294 23.9238 4.79924 23.9658 4.64303C24.0077 4.48682 24.0111 4.32278 23.9757 4.16497C23.9403 4.00715 23.8672 3.86028 23.7625 3.73694C23.6579 3.61361 23.5249 3.51749 23.375 3.45683C22.0087 2.90412 20.5275 2.69543 19.0617 2.8491C17.5958 3.00277 16.1901 3.51409 14.9681 4.33814C13.7461 5.16219 12.7452 6.27375 12.0533 7.57514C11.3614 8.87654 10.9997 10.3279 11 11.8018C10.9984 13.0464 11.2537 14.278 11.75 15.4193L4.22375 21.9268C4.205 21.9418 4.1875 21.9593 4.17 21.9756C3.41977 22.7258 2.99829 23.7433 2.99829 24.8043C2.99829 25.3297 3.10177 25.8499 3.30281 26.3352C3.50385 26.8206 3.79852 27.2616 4.17 27.6331C4.54148 28.0046 4.98249 28.2992 5.46784 28.5003C5.9532 28.7013 6.4734 28.8048 6.99875 28.8048C8.05974 28.8048 9.07727 28.3833 9.8275 27.6331C9.84375 27.6168 9.86125 27.5981 9.87625 27.5806L16.3825 20.0518C17.753 20.6534 19.252 20.9038 20.7436 20.7801C22.2353 20.6564 23.6725 20.1627 24.9253 19.3436C26.178 18.5244 27.2067 17.4058 27.9182 16.089C28.6297 14.7721 29.0015 13.2986 29 11.8018C29.002 10.6451 28.7795 9.49889 28.345 8.42683ZM20 18.8018C18.8163 18.8002 17.6523 18.4992 16.6163 17.9268C16.4155 17.8159 16.1828 17.7774 15.957 17.8177C15.7313 17.858 15.5262 17.9746 15.3763 18.1481L8.38875 26.2406C8.01063 26.5998 7.50713 26.7971 6.9856 26.7905C6.46408 26.7838 5.9658 26.5736 5.59699 26.2048C5.22819 25.836 5.01805 25.3377 5.01137 24.8162C5.00469 24.2947 5.20201 23.7912 5.56125 23.4131L13.6475 16.4268C13.8213 16.2768 13.9381 16.0715 13.9784 15.8455C14.0187 15.6194 13.98 15.3864 13.8688 15.1856C13.2313 14.0326 12.9321 12.7232 13.0057 11.4078C13.0792 10.0924 13.5224 8.82448 14.2844 7.74977C15.0464 6.67506 16.0963 5.8372 17.3132 5.33251C18.5302 4.82783 19.8648 4.67682 21.1638 4.89683L17.2638 9.12308C17.1552 9.24079 17.0766 9.38284 17.0344 9.53728C16.9922 9.69172 16.9877 9.85404 17.0213 10.0106L17.7288 13.3018C17.7692 13.4901 17.8632 13.6626 17.9993 13.7988C18.1355 13.9349 18.308 14.0289 18.4963 14.0693L21.79 14.7768C21.9465 14.8104 22.1089 14.8059 22.2633 14.7637C22.4177 14.7215 22.5598 14.6428 22.6775 14.5343L26.9038 10.6343C27.0722 11.6381 27.02 12.6665 26.7508 13.648C26.4816 14.6296 26.0017 15.5407 25.3447 16.318C24.6876 17.0953 23.8692 17.7202 22.9462 18.1491C22.0232 18.5781 21.0178 18.8008 20 18.8018Z" fill="#082DA7"/>
<path d="M8 31.8H25" stroke="#EB0F39" stroke-width="2" stroke-linecap="round"/>
</g>
<defs>
<clipPath id="clip0_40004038_1081">
<rect width="32" height="32" fill="white" transform="translate(0 0.800049)"/>
</clipPath>
</defs>
</svg>
