<svg width="15" height="20" viewBox="0 0 15 20" fill="none" xmlns="http://www.w3.org/2000/svg">
<path d="M2.45286 3.30347L2.41156 3.34476H2.37027L0.553154 5.16188V5.20317L0.511856 5.24447V19.038H0.553154L2.45286 17.1383V17.097L2.53546 17.0144V16.9731L2.57676 16.9318V3.34476L2.53546 3.30347H2.45286Z" fill="#072FAC"/>
<path d="M5.83928 0L5.59149 0.247788H5.55019L5.3437 0.454278V0.495576L5.3024 0.536874H5.2611V0.578172L5.17851 0.660768H5.13721L4.60034 1.19764V1.23894L4.55904 1.28024H4.51774L4.47644 1.32154V1.36283L4.39385 1.44543H4.35255V1.48673L4.18736 1.65192H4.14606V1.69322L3.52659 2.31269V2.72567L3.48529 2.76697L3.52659 2.80826V13.3393L3.48529 13.3806L3.52659 13.4219L3.48529 13.4631L3.52659 13.5044V16.8496L3.56789 16.8909H11.3732L11.4145 16.8496H11.4558L11.4971 16.8083V16.767L11.5797 16.6844V16.6431L11.621 16.6018V16.5605L11.6623 16.5192V16.4779L11.7036 16.4366V16.3953L11.7862 16.3127V16.2714L11.8275 16.2301V16.1888L11.8688 16.1475V16.1062L11.9101 16.0649V16.0236L11.9927 15.941V15.8997L12.034 15.8584V15.8171L12.0753 15.7758V15.7345L12.1166 15.6932V15.6519L12.1579 15.6106V15.5693L12.1992 15.528V15.4868L12.2818 15.4042V15.3629L12.3231 15.3216V15.2803L12.3644 15.239V15.1977L12.4057 15.1564V15.1151L12.447 15.0738V15.0325L12.4883 14.9912V14.9499L12.5709 14.8673V14.7847L12.6534 14.7021V14.6608L12.6947 14.6195V14.5782L12.736 14.5369V14.4956L12.7773 14.4543V14.413L12.8186 14.3717V14.3304L12.8599 14.2891V14.2478L12.9012 14.2065V14.1652L12.9838 14.0826V14.0413L13.0251 14V13.9587L13.0664 13.9174V13.8761L13.1077 13.8348V13.7935L13.149 13.7522V13.7109L13.1903 13.6696V13.6283L13.2316 13.587V13.5457L13.2729 13.5044V13.4631L13.3142 13.4219V13.3806L13.3555 13.3393V13.298L13.3968 13.2567V13.2154L13.4794 13.1328V13.0915L13.5207 13.0502V13.0089L13.562 12.9676V12.9263L13.6033 12.885V12.8437L13.6446 12.8024V12.7611L13.6859 12.7198V12.6785L13.7272 12.6372V12.5959L13.7685 12.5546V12.5133L13.8098 12.472V12.4307L13.8511 12.3894V12.3481L13.8924 12.3068V12.2655L13.9337 12.2242V12.1829L13.975 12.1416V12.1003L14.0576 12.0177V11.9351L14.1402 11.8525V11.8112L14.1815 11.7699V11.7286L14.2228 11.6873V11.646L14.3054 11.5634V11.5221L14.4293 11.3982V11.357L14.5119 11.2744L14.4706 11.3157H14.4293L13.9337 11.8112H13.8924L13.3555 12.3481H13.3142L12.9425 12.7198H12.9012L12.4883 13.1328H12.447L12.034 13.5457H11.9927V13.587L11.9514 13.6283H11.9101L11.5384 14H11.4971L11.1667 14.3304H11.1254L10.8363 14.6195H10.795L10.7124 14.7021H6.00447L5.96317 14.6608V0.123894L5.83928 0Z" fill="url(#paint0_linear_40004032_46)"/>
<defs>
<linearGradient id="paint0_linear_40004032_46" x1="4.2906" y1="0.41298" x2="14.4228" y2="9.7946" gradientUnits="userSpaceOnUse">
<stop stop-color="#0134B9"/>
<stop offset="0.630914" stop-color="#112591"/>
<stop offset="1" stop-color="#EB0F39"/>
</linearGradient>
</defs>
</svg>
