<svg width="31" height="43" viewBox="0 0 31 43" fill="none" xmlns="http://www.w3.org/2000/svg">
<path d="M4.20817 8.02454L4.11863 8.11407H4.0291L0.0895355 12.0536V12.1432L0 12.2327V42.1376H0.0895355L4.20817 38.0189V37.9294L4.38724 37.7503V37.6608L4.47677 37.5712V8.11407L4.38724 8.02454H4.20817Z" fill="#072FAC"/>
<path d="M11.5501 0.862488L11.0128 1.3997H10.9233L10.4756 1.84738V1.93691L10.3861 2.02645H10.2966V2.11598L10.1175 2.29506H10.028L8.86399 3.45902V3.54855L8.77446 3.63809H8.68492L8.59538 3.72762V3.81716L8.41631 3.99623H8.32678V4.08576L7.96864 4.44391H7.8791V4.53344L6.53607 5.87647V6.77183L6.44653 6.86136L6.53607 6.9509V29.7824L6.44653 29.872L6.53607 29.9615L6.44653 30.0511L6.53607 30.1406V37.393L6.6256 37.4825H23.5478L23.6373 37.393H23.7269L23.8164 37.3034V37.2139L23.9955 37.0348V36.9453L24.085 36.8557V36.7662L24.1746 36.6767V36.5871L24.2641 36.4976V36.4081L24.4432 36.229V36.1395L24.5327 36.0499V35.9604L24.6222 35.8709V35.7813L24.7118 35.6918V35.6023L24.8908 35.4232V35.3336L24.9804 35.2441V35.1546L25.0699 35.065V34.9755L25.1594 34.886V34.7964L25.249 34.7069V34.6174L25.3385 34.5278V34.4383L25.5176 34.2592V34.1697L25.6071 34.0802V33.9906L25.6967 33.9011V33.8115L25.7862 33.722V33.6325L25.8757 33.5429V33.4534L25.9653 33.3639V33.2743L26.1443 33.0953V32.9162L26.3234 32.7371V32.6476L26.4129 32.558V32.4685L26.5025 32.379V32.2894L26.592 32.1999V32.1104L26.6816 32.0208V31.9313L26.7711 31.8418V31.7522L26.8606 31.6627V31.5732L27.0397 31.3941V31.3046L27.1292 31.215V31.1255L27.2188 31.0359V30.9464L27.3083 30.8569V30.7673L27.3978 30.6778V30.5883L27.4874 30.4987V30.4092L27.5769 30.3197V30.2301L27.6664 30.1406V30.0511L27.756 29.9615V29.872L27.8455 29.7824V29.6929L27.935 29.6034V29.5138L28.1141 29.3348V29.2452L28.2037 29.1557V29.0662L28.2932 28.9766V28.8871L28.3827 28.7976V28.708L28.4723 28.6185V28.5289L28.5618 28.4394V28.3499L28.6513 28.2603V28.1708L28.7409 28.0813V27.9917L28.8304 27.9022V27.8127L28.9199 27.7231V27.6336L29.0095 27.5441V27.4545L29.099 27.365V27.2755L29.1885 27.1859V27.0964L29.3676 26.9173V26.7382L29.5467 26.5592V26.4696L29.6362 26.3801V26.2906L29.7258 26.201V26.1115L29.9048 25.9324V25.8429L30.1734 25.5743V25.4847L30.3525 25.3057L30.263 25.3952H30.1734L29.099 26.4696H29.0095L27.8455 27.6336H27.756L26.9502 28.4394H26.8606L25.9653 29.3348H25.8757L24.9804 30.2301H24.8908V30.3197L24.8013 30.4092H24.7118L23.906 31.215H23.8164L23.1001 31.9313H23.0106L22.3838 32.558H22.2943L22.1152 32.7371H11.9082L11.8187 32.6476V1.13109L11.5501 0.862488Z" fill="url(#paint0_linear_40004032_51)"/>
<defs>
<linearGradient id="paint0_linear_40004032_51" x1="8.19248" y1="1.75784" x2="30.1594" y2="22.0975" gradientUnits="userSpaceOnUse">
<stop stop-color="#0134B9"/>
<stop offset="0.630914" stop-color="#112591"/>
<stop offset="1" stop-color="#EB0F39"/>
</linearGradient>
</defs>
</svg>
