<svg width="206" height="42" viewBox="0 0 206 42" fill="none" xmlns="http://www.w3.org/2000/svg">
<path d="M4.20817 7.16203L4.11863 7.25156H4.0291L0.0895355 11.1911V11.2807L0 11.3702V41.275H0.0895355L4.20817 37.1564V37.0669L4.38724 36.8878V36.7983L4.47677 36.7087V7.25156L4.38724 7.16203H4.20817Z" fill="#072FAC"/>
<path d="M11.55 1.90735e-06L11.0128 0.537215H10.9233L10.4756 0.984892V1.07443L10.3861 1.16396H10.2965V1.2535L10.1175 1.43257H10.0279L8.86396 2.59653V2.68607L8.77443 2.7756H8.68489L8.59535 2.86514V2.95467L8.41628 3.13374H8.32675V3.22328L7.96861 3.58142H7.87907V3.67096L6.53604 5.01399V5.90934L6.4465 5.99888L6.53604 6.08841V28.92L6.4465 29.0095L6.53604 29.099L6.4465 29.1886L6.53604 29.2781V36.5305L6.62557 36.62H23.5478L23.6373 36.5305H23.7268L23.8164 36.4409V36.3514L23.9955 36.1723V36.0828L24.085 35.9933V35.9037L24.1745 35.8142V35.7247L24.2641 35.6351V35.5456L24.4431 35.3665V35.277L24.5327 35.1874V35.0979L24.6222 35.0084V34.9188L24.7117 34.8293V34.7398L24.8908 34.5607V34.4712L24.9803 34.3816V34.2921L25.0699 34.2026V34.113L25.1594 34.0235V33.9339L25.249 33.8444V33.7549L25.3385 33.6653V33.5758L25.5176 33.3967V33.3072L25.6071 33.2177V33.1281L25.6966 33.0386V32.9491L25.7862 32.8595V32.77L25.8757 32.6804V32.5909L25.9652 32.5014V32.4118L26.1443 32.2328V32.0537L26.3234 31.8746V31.7851L26.4129 31.6956V31.606L26.5024 31.5165V31.427L26.592 31.3374V31.2479L26.6815 31.1583V31.0688L26.7711 30.9793V30.8897L26.8606 30.8002V30.7107L27.0397 30.5316V30.4421L27.1292 30.3525V30.263L27.2187 30.1735V30.0839L27.3083 29.9944V29.9049L27.3978 29.8153V29.7258L27.4873 29.6362V29.5467L27.5769 29.4572V29.3676L27.6664 29.2781V29.1886L27.7559 29.099V29.0095L27.8455 28.92V28.8304L27.935 28.7409V28.6514L28.1141 28.4723V28.3827L28.2036 28.2932V28.2037L28.2932 28.1141V28.0246L28.3827 27.9351V27.8455L28.4722 27.756V27.6665L28.5618 27.5769V27.4874L28.6513 27.3979V27.3083L28.7408 27.2188V27.1293L28.8304 27.0397V26.9502L28.9199 26.8606V26.7711L29.0094 26.6816V26.592L29.099 26.5025V26.413L29.1885 26.3234V26.2339L29.3676 26.0548V25.8758L29.5467 25.6967V25.6071L29.6362 25.5176V25.4281L29.7257 25.3385V25.249L29.9048 25.0699V24.9804L30.1734 24.7118V24.6223L30.3525 24.4432L30.2629 24.5327H30.1734L29.099 25.6071H29.0094L27.8455 26.7711H27.7559L26.9501 27.5769H26.8606L25.9652 28.4723H25.8757L24.9803 29.3676H24.8908V29.4572L24.8013 29.5467H24.7117L23.9059 30.3525H23.8164L23.1001 31.0688H23.0106L22.3838 31.6956H22.2943L22.1152 31.8746H11.9082L11.8186 31.7851V0.268608L11.55 1.90735e-06Z" fill="url(#paint0_linear_40004023_128)"/>
<path d="M39.2729 31.268H35.0889V15.2446H39.2729V31.268ZM46.969 31.245H42.785V15.2446H46.969V31.245ZM54.4898 31.245H50.3058V19.2677H54.4898V31.245ZM51.8231 18.2332C50.6966 18.2332 50.3288 17.8653 50.3288 16.7389C50.3288 15.6124 50.6966 15.2446 51.8231 15.2446H52.9496C54.076 15.2446 54.4439 15.6124 54.4439 16.7389C54.4439 17.8653 54.076 18.2332 52.9496 18.2332H51.8231ZM66.7004 18.7159C69.9879 18.7159 72.6546 21.2217 72.6546 25.2218V31.245H68.4936V25.2448C68.4936 25.2218 68.4936 25.2218 68.4936 25.2218C68.4936 23.0609 67.0223 21.6815 65.2291 21.6815C63.482 21.6815 62.0567 23.0149 62.0107 25.1069V31.245H57.8267V19.2677H62.0107V20.785C62.9762 19.4976 64.4935 18.7159 66.7004 18.7159ZM81.246 18.2102C81.0161 18.2102 80.8322 18.3941 80.8552 18.601V20.0263H83.0392V22.9689H80.8552V31.245H76.6482V22.9459H74.4643V20.0263H76.6482V19.1987C76.6482 17.0377 78.4184 15.2676 80.6023 15.2676H83.9587V18.2102H81.246ZM92.2009 18.7389C97.3274 18.7389 99.6263 22.0034 99.6263 25.2448C99.6263 28.4863 97.3274 31.7507 92.2009 31.7507C87.0743 31.7507 84.7984 28.4863 84.7984 25.2448C84.7984 22.0034 87.0743 18.7389 92.2009 18.7389ZM92.2009 28.8081C94.5228 28.8081 95.4423 27.1759 95.4423 25.2448C95.4423 23.3367 94.5228 21.6815 92.2009 21.6815C89.879 21.6815 88.9594 23.3138 88.9594 25.2448C88.9594 27.1759 89.879 28.8081 92.2009 28.8081ZM106.574 20.785C107.54 19.4976 109.057 18.7159 111.264 18.7159V21.6815H109.793C108.046 21.6815 106.62 23.0149 106.574 25.1069V31.245H102.39V19.2677H106.574V20.785ZM128.767 18.7619C132.468 18.7619 134.169 21.3827 134.169 25.2908V31.245H129.985V25.2908C129.985 22.3252 128.951 21.7045 127.962 21.7045C126.997 21.7045 125.939 22.3252 125.939 25.2908V31.245H121.755V25.2908C121.755 22.3252 120.721 21.7045 119.732 21.7045C118.79 21.7045 117.755 22.3022 117.732 25.1759V31.245H113.548V19.2677H117.732V20.4171C118.445 19.3826 119.433 18.7619 120.583 18.7619C123.181 18.7619 124.33 19.8194 124.813 21.6815C125.479 19.8654 126.767 18.7619 128.767 18.7619ZM147.439 19.2677H151.623V31.268H147.439V29.7047C146.473 30.9921 144.933 31.7507 142.749 31.7507C139.461 31.7507 136.795 29.2679 136.795 25.2448C136.795 21.2447 139.461 18.7619 142.749 18.7619C144.933 18.7619 146.473 19.5206 147.439 20.8079V19.2677ZM147.439 25.3828V25.1299C147.393 23.0379 145.967 21.7045 144.197 21.7045C142.404 21.7045 140.956 23.0839 140.956 25.2448C140.956 27.4288 142.404 28.7851 144.197 28.7851C145.967 28.7851 147.393 27.4748 147.439 25.3828ZM146.358 14.7618L144.749 17.7504H143.623L144.542 14.7618H146.358ZM162.578 22.1643H160.371V27.9116C160.371 28.1415 160.555 28.3254 160.762 28.3254H162.578V31.268L160.141 31.245C157.957 31.245 156.187 29.4978 156.187 27.3138V22.1643H154.003V19.2217H156.187V16.0492L160.371 15.2446V19.2217H162.578V22.1643ZM169.615 31.245H165.431V19.2677H169.615V31.245ZM166.948 18.2332C165.821 18.2332 165.454 17.8653 165.454 16.7389C165.454 15.6124 165.821 15.2446 166.948 15.2446H168.074C169.201 15.2446 169.569 15.6124 169.569 16.7389C169.569 17.8653 169.201 18.2332 168.074 18.2332H166.948ZM182.676 27.1069L186.538 28.1644C185.504 30.2105 183.32 31.7507 179.779 31.7507C174.653 31.7507 172.377 28.4863 172.377 25.2448C172.377 22.0034 174.653 18.7389 179.779 18.7389C183.297 18.7389 185.481 20.2792 186.515 22.2792L182.653 23.3367C182.17 22.3482 181.274 21.6815 179.779 21.6815C177.457 21.6815 176.538 23.3138 176.538 25.2448C176.538 27.1759 177.457 28.8081 179.779 28.8081C181.297 28.8081 182.216 28.1185 182.676 27.1069ZM199.007 19.2677H203.191V31.268H199.007V29.7047C198.041 30.9921 196.501 31.7507 194.317 31.7507C191.03 31.7507 188.363 29.2679 188.363 25.2448C188.363 21.2447 191.03 18.7619 194.317 18.7619C196.501 18.7619 198.041 19.5206 199.007 20.8079V19.2677ZM199.007 25.3828V25.1299C198.961 23.0379 197.536 21.7045 195.765 21.7045C193.972 21.7045 192.524 23.0839 192.524 25.2448C192.524 27.4288 193.972 28.7851 195.765 28.7851C197.536 28.7851 198.961 27.4748 199.007 25.3828Z" fill="white"/>
<defs>
<linearGradient id="paint0_linear_40004023_128" x1="8.19244" y1="0.895356" x2="30.1594" y2="21.235" gradientUnits="userSpaceOnUse">
<stop stop-color="#0134B9"/>
<stop offset="0.630914" stop-color="#112591"/>
<stop offset="1" stop-color="#EB0F39"/>
</linearGradient>
</defs>
</svg>
